<svg version="1.2" baseProfile="tiny-ps" xmlns="http://www.w3.org/2000/svg" viewBox="0 0 96 96" width="96" height="96">
	<title>header </title>
	<style>
		tspan { white-space:pre }
		.shp0 { fill: #ffffff } 
	</style>
	<g id="header ">
		<path id="Эллипс 2" class="shp0" d="M69.55 96L26.45 96C11.84 96 0 84.16 0 69.55L0 26.45C0 11.84 11.84 0 26.45 0L69.55 0C84.16 0 96 11.84 96 26.45L96 69.55C96 84.16 84.16 96 69.55 96ZM87.43 25.71C87.43 16.25 79.75 8.57 70.29 8.57L25.71 8.57C16.25 8.57 8.57 16.25 8.57 25.71L8.57 70.29C8.57 79.75 16.25 87.43 25.71 87.43L70.29 87.43C79.75 87.43 87.43 79.75 87.43 70.29L87.43 25.71ZM73.22 27.67C70.11 27.67 67.59 25.15 67.59 22.04C67.59 18.93 70.11 16.41 73.22 16.41C76.34 16.41 78.86 18.93 78.86 22.04C78.86 25.15 76.34 27.67 73.22 27.67ZM48 72.73C34.34 72.73 23.27 61.66 23.27 48C23.27 34.34 34.34 23.27 48 23.27C61.66 23.27 72.73 34.34 72.73 48C72.73 61.66 61.66 72.73 48 72.73ZM48 32.08C39.21 32.08 32.08 39.21 32.08 48C32.08 56.79 39.21 63.92 48 63.92C56.79 63.92 63.92 56.79 63.92 48C63.92 39.21 56.79 32.08 48 32.08Z" />
	</g>
</svg>